<svg width="64" height="64" viewBox="0 0 64 64" fill="none" xmlns="http://www.w3.org/2000/svg">
  <rect width="64" height="64" rx="16" fill="#050816"></rect>
  <rect x="2" y="2" width="60" height="60" rx="14" stroke="#38BDF8" stroke-width="2"></rect>
  <path d="M16 43V21H21V30H32V21H37V43H32V34H21V43H16Z" fill="#F8FAFC"></path>
  <path d="M42 43V21H48C52.5 21 55 23.2 55 27C55 29.3 53.9 31 51.8 31.9C54.4 32.8 56 34.7 56 37.4C56 41.1 53.4 43 48.7 43H42ZM47 30H48.1C49.4 30 50 29.3 50 28C50 26.7 49.4 26 48.1 26H47V30ZM47 38H48.6C50.1 38 50.9 37.3 50.9 36C50.9 34.6 50.1 34 48.6 34H47V38Z" fill="#38BDF8"></path>
</svg>